<mxfile host="app.diagrams.net" modified="2023-05-02T09:08:36.352Z" agent="Mozilla/5.0 (Macintosh; Intel Mac OS X 10_15_7) AppleWebKit/605.1.15 (KHTML, like Gecko) Version/16.3 Safari/605.1.15" etag="fVfdR7VpSfQnSX4O3fgM" version="21.2.3" type="device">
  <diagram id="kgpKYQtTHZ0yAKxKKP6v" name="Page-1">
    <mxGraphModel dx="1207" dy="687" grid="1" gridSize="10" guides="1" tooltips="1" connect="1" arrows="1" fold="1" page="1" pageScale="1" pageWidth="850" pageHeight="1100" math="0" shadow="0">
      <root>
        <mxCell id="0" />
        <mxCell id="1" parent="0" />
        <mxCell id="gS6pbBLeeU4qE3z8Y1Gp-2" value="" style="points=[];perimeter=orthogonalPerimeter;rounded=0;shadow=0;strokeWidth=1;" vertex="1" parent="1">
          <mxGeometry x="630" y="320" width="10" height="80" as="geometry" />
        </mxCell>
        <mxCell id="gS6pbBLeeU4qE3z8Y1Gp-22" value="" style="rounded=0;whiteSpace=wrap;html=1;strokeWidth=2;fillColor=none;dashed=1;" vertex="1" parent="1">
          <mxGeometry x="120" y="20" width="590" height="560" as="geometry" />
        </mxCell>
        <mxCell id="gS6pbBLeeU4qE3z8Y1Gp-28" value="" style="rounded=0;whiteSpace=wrap;html=1;strokeWidth=2;fillColor=none;dashed=1;" vertex="1" parent="1">
          <mxGeometry x="550" y="20" width="500" height="560" as="geometry" />
        </mxCell>
        <mxCell id="gS6pbBLeeU4qE3z8Y1Gp-26" value="" style="rounded=0;whiteSpace=wrap;html=1;strokeWidth=2;fillColor=none;dashed=1;" vertex="1" parent="1">
          <mxGeometry x="550" y="20" width="160" height="560" as="geometry" />
        </mxCell>
        <mxCell id="3nuBFxr9cyL0pnOWT2aG-1" value="Arduino&#xa;ReadScanner.c" style="shape=umlLifeline;perimeter=lifelinePerimeter;container=1;collapsible=0;recursiveResize=0;rounded=0;shadow=0;strokeWidth=1;" parent="1" vertex="1">
          <mxGeometry x="280" y="80" width="120" height="410" as="geometry" />
        </mxCell>
        <mxCell id="3nuBFxr9cyL0pnOWT2aG-2" value="" style="points=[];perimeter=orthogonalPerimeter;rounded=0;shadow=0;strokeWidth=1;" parent="3nuBFxr9cyL0pnOWT2aG-1" vertex="1">
          <mxGeometry x="45" y="70" width="10" height="190" as="geometry" />
        </mxCell>
        <mxCell id="3nuBFxr9cyL0pnOWT2aG-4" value="" style="points=[];perimeter=orthogonalPerimeter;rounded=0;shadow=0;strokeWidth=1;" parent="3nuBFxr9cyL0pnOWT2aG-1" vertex="1">
          <mxGeometry x="50" y="80" width="10" height="80" as="geometry" />
        </mxCell>
        <mxCell id="nScBYCWxjY9ZavhJChGL-7" value="" style="edgeStyle=elbowEdgeStyle;elbow=horizontal;endArrow=classic;html=1;rounded=0;" parent="3nuBFxr9cyL0pnOWT2aG-1" edge="1">
          <mxGeometry width="50" height="50" relative="1" as="geometry">
            <mxPoint x="60" y="100" as="sourcePoint" />
            <mxPoint x="60" y="130" as="targetPoint" />
            <Array as="points">
              <mxPoint x="90" y="120" />
            </Array>
          </mxGeometry>
        </mxCell>
        <mxCell id="nScBYCWxjY9ZavhJChGL-8" value="Daten werden gescannt&lt;br&gt;" style="edgeLabel;html=1;align=center;verticalAlign=middle;resizable=0;points=[];" parent="nScBYCWxjY9ZavhJChGL-7" vertex="1" connectable="0">
          <mxGeometry x="-0.1556" relative="1" as="geometry">
            <mxPoint x="60" y="2" as="offset" />
          </mxGeometry>
        </mxCell>
        <mxCell id="3nuBFxr9cyL0pnOWT2aG-5" value="Umweltbelastung.jar&#xa;Model" style="shape=umlLifeline;perimeter=lifelinePerimeter;container=1;collapsible=0;recursiveResize=0;rounded=0;shadow=0;strokeWidth=1;" parent="1" vertex="1">
          <mxGeometry x="580" y="80" width="110" height="400" as="geometry" />
        </mxCell>
        <mxCell id="3nuBFxr9cyL0pnOWT2aG-6" value="" style="points=[];perimeter=orthogonalPerimeter;rounded=0;shadow=0;strokeWidth=1;" parent="3nuBFxr9cyL0pnOWT2aG-5" vertex="1">
          <mxGeometry x="45" y="220" width="10" height="120" as="geometry" />
        </mxCell>
        <mxCell id="gS6pbBLeeU4qE3z8Y1Gp-37" value="" style="edgeStyle=elbowEdgeStyle;elbow=vertical;endArrow=classic;html=1;rounded=0;exitX=1.024;exitY=0.843;exitDx=0;exitDy=0;exitPerimeter=0;entryX=0.083;entryY=0.166;entryDx=0;entryDy=0;entryPerimeter=0;" edge="1" parent="3nuBFxr9cyL0pnOWT2aG-5" target="3nuBFxr9cyL0pnOWT2aG-6">
          <mxGeometry width="50" height="50" relative="1" as="geometry">
            <mxPoint x="-100" y="241" as="sourcePoint" />
            <mxPoint x="30" y="240" as="targetPoint" />
            <Array as="points" />
          </mxGeometry>
        </mxCell>
        <mxCell id="gS6pbBLeeU4qE3z8Y1Gp-38" value="Daten werden übermittelt" style="edgeLabel;html=1;align=center;verticalAlign=middle;resizable=0;points=[];" vertex="1" connectable="0" parent="gS6pbBLeeU4qE3z8Y1Gp-37">
          <mxGeometry x="-0.1511" relative="1" as="geometry">
            <mxPoint x="19" y="10" as="offset" />
          </mxGeometry>
        </mxCell>
        <mxCell id="gS6pbBLeeU4qE3z8Y1Gp-3" value="" style="edgeStyle=elbowEdgeStyle;elbow=horizontal;endArrow=classic;html=1;rounded=0;" edge="1" parent="3nuBFxr9cyL0pnOWT2aG-5">
          <mxGeometry width="50" height="50" relative="1" as="geometry">
            <mxPoint x="60" y="260" as="sourcePoint" />
            <mxPoint x="60" y="290" as="targetPoint" />
            <Array as="points">
              <mxPoint x="90" y="280" />
            </Array>
          </mxGeometry>
        </mxCell>
        <mxCell id="gS6pbBLeeU4qE3z8Y1Gp-4" value="Berechnung der Umweltbelastungspunkte&lt;br&gt;(Umweltbelstung.jar)" style="edgeLabel;html=1;align=center;verticalAlign=middle;resizable=0;points=[];" vertex="1" connectable="0" parent="gS6pbBLeeU4qE3z8Y1Gp-3">
          <mxGeometry x="-0.1556" relative="1" as="geometry">
            <mxPoint x="50" y="12" as="offset" />
          </mxGeometry>
        </mxCell>
        <mxCell id="nScBYCWxjY9ZavhJChGL-9" value="Display" style="shape=umlLifeline;perimeter=lifelinePerimeter;container=1;collapsible=0;recursiveResize=0;rounded=0;shadow=0;strokeWidth=1;" parent="1" vertex="1">
          <mxGeometry x="925" y="80" width="100" height="360" as="geometry" />
        </mxCell>
        <mxCell id="nScBYCWxjY9ZavhJChGL-15" value="" style="edgeStyle=elbowEdgeStyle;elbow=vertical;endArrow=classic;html=1;rounded=0;exitX=1.024;exitY=0.843;exitDx=0;exitDy=0;exitPerimeter=0;entryX=-0.024;entryY=0.079;entryDx=0;entryDy=0;entryPerimeter=0;" parent="1" source="3nuBFxr9cyL0pnOWT2aG-2" target="gS6pbBLeeU4qE3z8Y1Gp-35" edge="1">
          <mxGeometry width="50" height="50" relative="1" as="geometry">
            <mxPoint x="530" y="300" as="sourcePoint" />
            <mxPoint x="610" y="310" as="targetPoint" />
            <Array as="points">
              <mxPoint x="470" y="310" />
            </Array>
          </mxGeometry>
        </mxCell>
        <mxCell id="nScBYCWxjY9ZavhJChGL-16" value="Daten werden übermittelt (SerialPort)" style="edgeLabel;html=1;align=center;verticalAlign=middle;resizable=0;points=[];" parent="nScBYCWxjY9ZavhJChGL-15" vertex="1" connectable="0">
          <mxGeometry x="-0.1511" relative="1" as="geometry">
            <mxPoint x="-12" as="offset" />
          </mxGeometry>
        </mxCell>
        <mxCell id="nScBYCWxjY9ZavhJChGL-10" value="" style="points=[];perimeter=orthogonalPerimeter;rounded=0;shadow=0;strokeWidth=1;" parent="1" vertex="1">
          <mxGeometry x="970" y="390" width="10" height="90" as="geometry" />
        </mxCell>
        <mxCell id="nScBYCWxjY9ZavhJChGL-19" value="Informationen werden übermittelt (HDMI)" style="edgeStyle=elbowEdgeStyle;elbow=vertical;endArrow=classic;html=1;rounded=0;exitX=1.1;exitY=0.076;exitDx=0;exitDy=0;exitPerimeter=0;entryX=0.014;entryY=0.203;entryDx=0;entryDy=0;entryPerimeter=0;" parent="1" edge="1" target="nScBYCWxjY9ZavhJChGL-10" source="gS6pbBLeeU4qE3z8Y1Gp-33">
          <mxGeometry x="0.714" y="9" width="50" height="50" relative="1" as="geometry">
            <mxPoint x="640" y="410" as="sourcePoint" />
            <mxPoint x="920" y="400" as="targetPoint" />
            <Array as="points" />
            <mxPoint as="offset" />
          </mxGeometry>
        </mxCell>
        <mxCell id="nScBYCWxjY9ZavhJChGL-17" value="" style="edgeStyle=segmentEdgeStyle;endArrow=classic;html=1;rounded=0;exitX=1.1;exitY=0.05;exitDx=0;exitDy=0;exitPerimeter=0;" parent="1" edge="1">
          <mxGeometry width="50" height="50" relative="1" as="geometry">
            <mxPoint x="980" y="404.5" as="sourcePoint" />
            <mxPoint x="984" y="440" as="targetPoint" />
            <Array as="points">
              <mxPoint x="980" y="410" />
              <mxPoint x="1004" y="410" />
              <mxPoint x="1004" y="440" />
            </Array>
          </mxGeometry>
        </mxCell>
        <mxCell id="nScBYCWxjY9ZavhJChGL-18" value="Daten werden auf dem Display angezeigt" style="edgeLabel;html=1;align=center;verticalAlign=middle;resizable=0;points=[];" parent="nScBYCWxjY9ZavhJChGL-17" vertex="1" connectable="0">
          <mxGeometry x="0.0201" y="1" relative="1" as="geometry">
            <mxPoint x="80" y="-1" as="offset" />
          </mxGeometry>
        </mxCell>
        <mxCell id="gS6pbBLeeU4qE3z8Y1Gp-5" value="RFID Scanner" style="shape=umlLifeline;perimeter=lifelinePerimeter;container=1;collapsible=0;recursiveResize=0;rounded=0;shadow=0;strokeWidth=1;" vertex="1" parent="1">
          <mxGeometry x="130" y="80" width="100" height="410" as="geometry" />
        </mxCell>
        <mxCell id="gS6pbBLeeU4qE3z8Y1Gp-6" value="" style="points=[];perimeter=orthogonalPerimeter;rounded=0;shadow=0;strokeWidth=1;" vertex="1" parent="gS6pbBLeeU4qE3z8Y1Gp-5">
          <mxGeometry x="45" y="70" width="10" height="50" as="geometry" />
        </mxCell>
        <mxCell id="gS6pbBLeeU4qE3z8Y1Gp-10" value="" style="endArrow=classic;html=1;rounded=0;entryX=0.26;entryY=0.042;entryDx=0;entryDy=0;entryPerimeter=0;" edge="1" parent="1" source="gS6pbBLeeU4qE3z8Y1Gp-5" target="3nuBFxr9cyL0pnOWT2aG-2">
          <mxGeometry width="50" height="50" relative="1" as="geometry">
            <mxPoint x="260" y="210" as="sourcePoint" />
            <mxPoint x="310" y="160" as="targetPoint" />
          </mxGeometry>
        </mxCell>
        <mxCell id="gS6pbBLeeU4qE3z8Y1Gp-11" value="Ereigniss stattgefunden (SPI)" style="edgeLabel;html=1;align=center;verticalAlign=middle;resizable=0;points=[];" vertex="1" connectable="0" parent="gS6pbBLeeU4qE3z8Y1Gp-10">
          <mxGeometry x="-0.4861" y="2" relative="1" as="geometry">
            <mxPoint x="43" y="14" as="offset" />
          </mxGeometry>
        </mxCell>
        <mxCell id="gS6pbBLeeU4qE3z8Y1Gp-12" value="" style="endArrow=classic;html=1;rounded=0;entryX=0.02;entryY=-0.008;entryDx=0;entryDy=0;entryPerimeter=0;" edge="1" parent="1" target="gS6pbBLeeU4qE3z8Y1Gp-6">
          <mxGeometry width="50" height="50" relative="1" as="geometry">
            <mxPoint x="60" y="150" as="sourcePoint" />
            <mxPoint x="140" y="150" as="targetPoint" />
          </mxGeometry>
        </mxCell>
        <mxCell id="gS6pbBLeeU4qE3z8Y1Gp-13" value="Figur wird platziert" style="edgeLabel;html=1;align=center;verticalAlign=middle;resizable=0;points=[];" vertex="1" connectable="0" parent="gS6pbBLeeU4qE3z8Y1Gp-12">
          <mxGeometry x="-0.4167" y="-1" relative="1" as="geometry">
            <mxPoint x="16" y="9" as="offset" />
          </mxGeometry>
        </mxCell>
        <mxCell id="gS6pbBLeeU4qE3z8Y1Gp-19" value="" style="shape=umlActor;verticalLabelPosition=bottom;verticalAlign=top;html=1;outlineConnect=0;" vertex="1" parent="1">
          <mxGeometry x="40" y="70" width="30" height="60" as="geometry" />
        </mxCell>
        <mxCell id="gS6pbBLeeU4qE3z8Y1Gp-20" value="" style="endArrow=none;dashed=1;html=1;dashPattern=1 3;strokeWidth=2;rounded=0;" edge="1" parent="1" target="gS6pbBLeeU4qE3z8Y1Gp-19">
          <mxGeometry width="50" height="50" relative="1" as="geometry">
            <mxPoint x="55" y="490" as="sourcePoint" />
            <mxPoint x="60" y="190" as="targetPoint" />
          </mxGeometry>
        </mxCell>
        <mxCell id="gS6pbBLeeU4qE3z8Y1Gp-21" value="Benutzer" style="edgeLabel;html=1;align=center;verticalAlign=middle;resizable=0;points=[];" vertex="1" connectable="0" parent="gS6pbBLeeU4qE3z8Y1Gp-20">
          <mxGeometry x="0.9056" relative="1" as="geometry">
            <mxPoint y="-97" as="offset" />
          </mxGeometry>
        </mxCell>
        <mxCell id="gS6pbBLeeU4qE3z8Y1Gp-25" value="Controller" style="text;html=1;strokeColor=none;fillColor=none;align=center;verticalAlign=middle;whiteSpace=wrap;rounded=0;" vertex="1" parent="1">
          <mxGeometry x="120" y="20" width="60" height="30" as="geometry" />
        </mxCell>
        <mxCell id="gS6pbBLeeU4qE3z8Y1Gp-27" value="Model" style="text;html=1;strokeColor=none;fillColor=none;align=center;verticalAlign=middle;whiteSpace=wrap;rounded=0;" vertex="1" parent="1">
          <mxGeometry x="540" y="20" width="60" height="30" as="geometry" />
        </mxCell>
        <mxCell id="gS6pbBLeeU4qE3z8Y1Gp-29" value="View" style="text;html=1;strokeColor=none;fillColor=none;align=center;verticalAlign=middle;whiteSpace=wrap;rounded=0;" vertex="1" parent="1">
          <mxGeometry x="740" y="20" width="60" height="30" as="geometry" />
        </mxCell>
        <mxCell id="gS6pbBLeeU4qE3z8Y1Gp-31" value="Dem Benutzer werden die Daten angezeigt" style="endArrow=classic;html=1;rounded=0;exitX=-0.141;exitY=0.948;exitDx=0;exitDy=0;exitPerimeter=0;" edge="1" parent="1" source="nScBYCWxjY9ZavhJChGL-10">
          <mxGeometry x="0.2083" y="2" width="50" height="50" relative="1" as="geometry">
            <mxPoint x="490" y="330" as="sourcePoint" />
            <mxPoint x="50" y="480" as="targetPoint" />
            <mxPoint as="offset" />
          </mxGeometry>
        </mxCell>
        <mxCell id="gS6pbBLeeU4qE3z8Y1Gp-32" value="Umweltbelastung&#xa;View" style="shape=umlLifeline;perimeter=lifelinePerimeter;container=1;collapsible=0;recursiveResize=0;rounded=0;shadow=0;strokeWidth=1;" vertex="1" parent="1">
          <mxGeometry x="750" y="80" width="100" height="405" as="geometry" />
        </mxCell>
        <mxCell id="gS6pbBLeeU4qE3z8Y1Gp-33" value="" style="points=[];perimeter=orthogonalPerimeter;rounded=0;shadow=0;strokeWidth=1;" vertex="1" parent="gS6pbBLeeU4qE3z8Y1Gp-32">
          <mxGeometry x="45" y="315" width="10" height="120" as="geometry" />
        </mxCell>
        <mxCell id="gS6pbBLeeU4qE3z8Y1Gp-34" value="Umweltbelastung&#xa;Controller" style="shape=umlLifeline;perimeter=lifelinePerimeter;container=1;collapsible=0;recursiveResize=0;rounded=0;shadow=0;strokeWidth=1;" vertex="1" parent="1">
          <mxGeometry x="440" y="80" width="100" height="400" as="geometry" />
        </mxCell>
        <mxCell id="gS6pbBLeeU4qE3z8Y1Gp-35" value="" style="points=[];perimeter=orthogonalPerimeter;rounded=0;shadow=0;strokeWidth=1;" vertex="1" parent="gS6pbBLeeU4qE3z8Y1Gp-34">
          <mxGeometry x="45" y="220" width="10" height="120" as="geometry" />
        </mxCell>
        <mxCell id="gS6pbBLeeU4qE3z8Y1Gp-39" value="" style="edgeStyle=elbowEdgeStyle;elbow=vertical;endArrow=classic;html=1;rounded=0;exitX=1.024;exitY=0.843;exitDx=0;exitDy=0;exitPerimeter=0;entryX=0.014;entryY=0.002;entryDx=0;entryDy=0;entryPerimeter=0;" edge="1" parent="1" target="gS6pbBLeeU4qE3z8Y1Gp-33">
          <mxGeometry width="50" height="50" relative="1" as="geometry">
            <mxPoint x="640" y="401" as="sourcePoint" />
            <mxPoint x="786" y="400" as="targetPoint" />
            <Array as="points" />
          </mxGeometry>
        </mxCell>
        <mxCell id="gS6pbBLeeU4qE3z8Y1Gp-40" value="Daten werden übermittelt" style="edgeLabel;html=1;align=center;verticalAlign=middle;resizable=0;points=[];" vertex="1" connectable="0" parent="gS6pbBLeeU4qE3z8Y1Gp-39">
          <mxGeometry x="-0.1511" relative="1" as="geometry">
            <mxPoint x="8" y="10" as="offset" />
          </mxGeometry>
        </mxCell>
      </root>
    </mxGraphModel>
  </diagram>
</mxfile>
